<svg height="64" preserveAspectRatio="none" viewBox="0 0 64 64" width="64" xmlns="http://www.w3.org/2000/svg" xmlns:xlink="http://www.w3.org/1999/xlink"><radialGradient id="a" cx="26.244141" cy="43.439453" gradientTransform="matrix(.9232159 .0233529 -.0073095 .2884376 8.088459 44.459587)" gradientUnits="userSpaceOnUse" r="17.180557"><stop offset="0" stop-color="#1f1f1f"/><stop offset="1" stop-color="#0e0e0e" stop-opacity="0"/></radialGradient><linearGradient id="b" gradientUnits="userSpaceOnUse" x1="29.112793" x2="42.237793" y1="32.90332" y2="57.528324"><stop offset="0" stop-color="#fff"/><stop offset=".1700442" stop-color="#fdfdfd"/><stop offset=".231293" stop-color="#f6f7f7"/><stop offset=".2749458" stop-color="#ebecec"/><stop offset=".3102628" stop-color="#dadcdc"/><stop offset=".340503" stop-color="#c4c7c8"/><stop offset=".3667944" stop-color="#a9aeb0"/><stop offset=".3818182" stop-color="#969c9e"/><stop offset=".4808122" stop-color="#9da3a5"/><stop offset=".6265475" stop-color="#b1b5b7"/><stop offset=".801138" stop-color="#d1d4d5"/><stop offset=".9966773" stop-color="#fefefe"/><stop offset="1" stop-color="#fff"/></linearGradient><linearGradient id="c" gradientUnits="userSpaceOnUse" x1="18.785156" x2="45.917839" y1="32.213867" y2="33.61126"><stop offset="0" stop-color="#fff"/><stop offset="1" stop-color="#ff5c61"/></linearGradient><linearGradient id="d"><stop offset="0" stop-color="#ffe1b9"/><stop offset="1" stop-color="#fff"/></linearGradient><linearGradient id="e" gradientUnits="userSpaceOnUse" x1="35.550781" x2="31.583279" xlink:href="#d" y1="27.632324" y2="12.588552"/><linearGradient id="f" gradientTransform="matrix(.8771881 .4802248 -.4802248 .8771881 16.110174 -11.280953)" gradientUnits="userSpaceOnUse" x1="25.311523" x2="27.391916" y1="6.774414" y2="11.743319"><stop offset="0" stop-color="#ff2f1f"/><stop offset=".454545" stop-color="#d31a20"/><stop offset="1" stop-color="#9f0022"/></linearGradient><linearGradient id="g" gradientTransform="matrix(.8937389 .4485875 -.4485875 .8937389 14.61811 -11.630272)" gradientUnits="userSpaceOnUse" x1="27.345215" x2="30.819344" y1="6.742676" y2=".804412"><stop offset="0" stop-color="#659f00"/><stop offset=".672727" stop-color="#8ddf00"/><stop offset=".7287484" stop-color="#8edb00"/><stop offset=".7895358" stop-color="#90ce00"/><stop offset=".8525732" stop-color="#93b800"/><stop offset=".9171321" stop-color="#979a00"/><stop offset=".9822807" stop-color="#9d7300"/><stop offset="1" stop-color="#9f6700"/></linearGradient><linearGradient id="h" gradientUnits="userSpaceOnUse" x1="35.698242" x2="33.445129" xlink:href="#d" y1="20.150879" y2="11.607637"/><path d="m48.0390625 58.0097656c-.0722656 2.9609375-7.3164063 5.1806641-16.1757813 4.9550781-8.8583984-.2236328-15.9785156-2.8076172-15.9023438-5.7666016.0751953-2.9628906 7.3154297-5.1855469 16.1757813-4.9609375 8.8593751.2275392 15.9785157 2.8085938 15.9023438 5.772461z" fill="url(#a)"/><path d="m31.9990234 62.4179688c-5.8388672 0-10.4897461-1.6171875-11.5732422-4.0244141-.3920898-.8720703-.2548828-1.7802734.3764648-2.4931641.6767578-.7646484 2.2900391-1.5556641 4.8666992-2.7666016.3364258-.1582031.6723633-.3164063.9995117-.4716797-.8334961-1.3105469-1.7143555-3.5820313-2.2060547-7.5166016-.8740234-6.9921875-3.2055664-21.7192383-3.453125-23.2783203-.315918-.706543-1.265625-3.4570313 1.2426758-6.809082-.2148438-1.6762695 1.3139648-3.4545898 1.7773438-3.9501953.1430665-.2656249.4707032-.7905273 1.0615235-1.3266601.0664063-.0737305.1450195-.1425781.21875-.1889648.0024414-.0014648.0048828-.0029297.0073242-.0043945.7255859-.5922852 1.5917969-1.0058594 2.5830078-1.2348633.4008789-.8295898 1.1108398-1.3085938 1.980957-1.3085938.15625 0 .2958984.0161133.4111328.0366211.2387695-.0605469.4794922-.1040039.7241211-.1308594.6582031-1.246582 1.6591797-1.9897461 2.8100586-2.0649414.9609375-.0625 1.5390625.3510742 1.9091797.7885742.7939453-.84375 2.6875-2.6796875 5.2490234-4.0297852l.0771484-.140625c.1767578-.3222656.5302734-.5166016.8925781-.4799805.4042969.0327148.7431641.1879883.9667969.4238281.3144531.2084961.5458984.5654297.5253906 1.0322266-.0058594.137207-.0419922.2709961-.1054688.3925781-.2128906.4052734-.7382813.8789063-1.4248047.8261719-.6025391.3100586-2.2246094 1.2436523-4.1367188 3.1518555.71875.3935547 1.1884766.9584961 1.4013672 1.6899414.0664063.2299805.0986328.4799805.0957031.7456055.4863281.1572266.8867188.4887695 1.1650391.972168.1464844.1640625.2822266.3515625.40625.5595703.3466797.3891602.5488281.8925781.6005859 1.4985352.0107422.0429688.0390625.1025391.0654297.168457.1708984.4360352.4599609 1.1704102.0234375 2.2988281 2.7744141 3.4760742 1.7792969 6.3583984 1.453125 7.0844727-.2470703 1.5605469-2.578125 16.2866211-3.453125 23.277832-.4912109 3.9345703-1.3720703 6.2060547-2.2060547 7.5166016.3271484.1552734.6621094.3125.9980469.4707031 2.5771484 1.2119141 4.1914063 2.0019531 4.8691406 2.7666016.6318359.7138672.7685547 1.6230469.3759766 2.4941406-1.0839841 2.4072266-5.7353513 4.0244141-11.5751951 4.0244141zm-5.6499023-51.2636719c-.4946289.4418945-.699707.8754883-.7016602.8798828-.0449219.0961914-.1118164.1958008-.1860352.2714844-.7089844.7216797-1.5664063 2.0375977-1.3325195 2.6308594.1235352.3129883.0683594.668457-.1445313.9296875-2.4179688 2.9677734-1.3046875 5.1865234-1.2563477 5.2792969.046875.0893555.0844727.1958008.1000977.2954102.0253906.1601563 2.5600586 16.0913086 3.4829102 23.4741211.6391602 5.1142578 1.9316406 6.8974609 2.4575195 7.4267578.2109375.2119141.3071289.5117188.2587891.8076172-.0488281.2949219-.2358398.5488281-.503418.6816406-.6381836.3193359-1.3481445.6523438-2.0625.9882813-1.6005859.7529297-3.793457 1.7832031-4.2646484 2.3154297-.1459961.1650391-.1640625.2900391-.0722656.4941406.546875 1.2148438 3.972168 2.9257813 9.8745117 2.9257813 5.9033203 0 9.3291016-1.7109375 9.8759766-2.9257813.0927734-.2041016.0742188-.3291016-.0712891-.4941406-.4716797-.5322266-2.6650391-1.5625-4.2666016-2.3154297-.7138672-.3359375-1.4228516-.6689453-2.0615234-.9873047-.2675781-.1337891-.4550781-.3876953-.5029297-.6835938-.0488281-.2949219.0478516-.5957031.2587891-.8076172.5253906-.5283203 1.8183594-2.3105469 2.4580078-7.4257813.9228516-7.3828125 3.4570313-23.3139648 3.4824219-23.4741211.0175781-.1074219.0527344-.2109375.1054688-.3056641.0419922-.0810547 1.0869141-2.1591797-1.0341797-4.980957-.3339844-.0068359-.6386719-.1918945-.7988281-.4858398-.1630859-.2993164-.1494141-.6640625.0361328-.9506836.5654297-.8754883.4482422-1.1738281.2988281-1.5517578-.0771484-.1962891-.1640625-.418457-.1875-.6923828-.0175781-.2055664-.0683594-.3520508-.1513672-.434082-.0634766-.0625-.1171875-.1333008-.1601563-.2109375-.0839844-.1518555-.1738281-.2763672-.265625-.3701172-.0673828-.0683594-.1230469-.1469727-.1660156-.2324219-.1445313-.2841797-.2558594-.2021484-.4785156-.1582031-.3222656.0644531-.6542969-.0483398-.8740234-.2944336s-.2919922-.5893555-.1923828-.902832c.1572266-.4912109.1064453-.7451172.0878906-.8115234-.0791016-.270508-.3115235-.657715-1.4150391-.8789064-.2246094-.0449219-.421875-.1704102-.5576172-.3491211-.359375.0253906-.7041016-.1948242-.8642578-.5336914-.2265625-.480957-.3300781-.5546875-.5527344-.5546875-.8330078.0522461-1.3022461.934082-1.5126953 1.4550781-.1420898.3520508-.4838867.5830078-.8637695.5830078-.3710938 0-.71875.0517578-1.0629883.1591797-.2143555.0664063-.4394531.0527344-.6362305-.0302734-.0810547-.0058594-.2744141-.1074219-.4394531.5019531-.0957031.3549805-.3916016.6201172-.7543945.6772461-.9448242.1479492-1.7353516.4970703-2.3491211 1.0371094-.0112305.0097656-.0229492.0190429-.0341797.0283203z" fill="#420903"/><path d="m42.5009766 56.5175781c-.8144531-.9189453-4.2177734-2.3261719-6.609375-3.5195313.7460938-.75 2.0722656-2.7724609 2.7216797-7.9677734.9316406-7.4521484 3.4785156-23.4428711 3.4785156-23.4428711s1.5517578-2.7949219-1.3974609-6.3642578h-8.6953125-8.6943359c-2.9492188 3.5693359-1.3964844 6.3642578-1.3964844 6.3642578s2.546875 15.9907227 3.4785156 23.4428711c.6494141 5.1953125 1.9755859 7.2177734 2.7211914 7.9677734-2.3911133 1.1933594-5.7949219 2.6005859-6.6083984 3.5195313-1.6513672 1.8642578 2.4267578 4.96875 10.4995117 4.96875 8.0751953 0 12.1523437-3.1044922 10.5019531-4.96875z" fill="url(#b)"/><path d="m31.9990234 61.9521484c-6.5 0-10.3354492-1.9433594-11.1484375-3.75-.3183594-.7070313-.2119141-1.4150391.300293-1.9931641.6621094-.7480469 2.6313477-1.6738281 4.7163086-2.6542969.5097656-.2392578 1.0170898-.4775391 1.4970703-.7099609-.7939453-1.0546875-1.8779297-3.2626953-2.4394531-7.7568359-.8881836-7.1044922-3.277832-22.1762695-3.4648438-23.3549805-.25-.5161133-1.387207-3.3295898 1.4858398-6.8066406l.1396484-.1689453h17.8286133l.1396484.1689453c2.8720703 3.4770508 1.7363281 6.2905273 1.4863281 6.8066406-.1865234 1.1782227-2.5761719 16.2504883-3.4648438 23.3549805-.5615234 4.4941406-1.6455078 6.7021484-2.4394531 7.7568359.4794922.2324219.9863281.4707031 1.4951172.7099609 2.0859375.9804688 4.0556641 1.90625 4.71875 2.6542969.5117188.578125.6181641 1.2861328.2998047 1.9931641-.8134764 1.8066407-4.6494139 3.75-11.1503905 3.75zm-8.4721679-46.2631836c-2.5112305 3.175293-1.265625 5.5722656-1.2104492 5.6748047l.0517578.1503906c.0253906.1601563 2.5585938 16.0834961 3.4804688 23.4584961.6337891 5.0683594 1.8945313 6.9980469 2.5893555 7.6972656l.4545898.4570313-.5766602.2880859c-.6352539.3164063-1.3417969.6484375-2.0522461.9833984-1.8188477.8544922-3.8808594 1.8242188-4.4155273 2.4277344-.2695313.3046875-.3164063.6201172-.1479492.9941406.6982422 1.5517578 4.5449219 3.2001953 10.2988281 3.2001953 5.7548828 0 9.6025391-1.6484375 10.3007813-3.2001953.1689453-.3740234.1220703-.6894531-.1474609-.9941406-.5351563-.6035156-2.5976563-1.5732422-4.4169922-2.4287109-.7109375-.3339844-1.4169922-.6660156-2.0517578-.9824219l-.5771484-.2880859.4550781-.4570313c.6953125-.6992188 1.9560547-2.6289063 2.5898438-7.6972656.921875-7.375 3.4550781-23.2983398 3.4804688-23.4584961l.0527344-.152832c.0537109-.1000977 1.2988281-2.4970703-1.2128906-5.6723633z" fill="#7a1515"/><path d="m26.9472656 43.3037109s.0605469 7.6679688 3.3442383 8.6220703c3.8520508 1.1191406 5.9741211-1.0800781 6.402832-4.1005859.4306641-3.0214844-9.7470703-4.5214844-9.7470703-4.5214844z" fill="#ad5959"/><path d="m38.5878906 15.8891602h-6.5888672-6.5820313c-2.9780273 2.4101563-3.0556641 4.6894531-1.9775391 6.7080078l4.0585938 25.3198242s1.5512695 2.3134766 4.5009766 2.3134766c2.9511719 0 4.6953125-2.6845703 4.6953125-2.6845703l3.8710938-24.9487305c1.078125-2.0185547 1.0009766-4.2978516-1.9775391-6.7080078z" fill="url(#c)"/><path d="m31.9990234 50.4804688c-3.0478516 0-4.6420898-2.3251953-4.7084961-2.4238281l-.0395508-.0996094-4.0517578-25.2792969c-1.3017578-2.4736328-.6088867-4.8227539 2.0605469-6.9829102l.0688477-.0556641h13.3481445l.0683594.0556641c2.6689453 2.159668 3.3623047 4.5087891 2.0605469 6.9824219l-3.9013672 25.0043945c-.0742188.1142578-1.8535156 2.7988282-4.9052735 2.7988282zm-4.2636718-2.6611329c.2255859.3046875 1.7036133 2.1611328 4.2636719 2.1611328 2.5849609 0 4.2236328-2.1953125 4.4570313-2.5292969l3.8886719-24.9716797c1.2050781-2.2563477.6015625-4.3310547-1.8457031-6.340332h-12.9931642c-2.4472656 2.0092773-3.0507813 4.0839844-1.8457031 6.340332l.0263672.078125z" fill="#f27777"/><path d="m26.1157227 16.6196289c-5.7680664-.4658203-1.3178711-4.9677734-1.3178711-4.9677734s.8237305-2.0185547 3.7900391-2.4833984c0 0 1.152832-1.7080078 3.9560547-1.2421875 0 0 4.4492188-1.0869141 5.6044922 3.1054688 0 0 2.2060547-.5908203 2.3720703 1.3642578.0498047.5957031.9238281 1.1816406-.3945313 3.0449219 0-.0000001-3.9658203 4.7490233-14.0102539 1.1787108z" fill="url(#e)"/><g fill="#fff"><path d="m22.8056641 57.1396484 6.4921875-3.5380859 1.3959961.2802734-4.2841797 4.546875s-.5332032 1.5058594-3.6040039-1.2890625z"/><path d="m41.1992188 56.7578125s-3.1289063 3.1738281-10.9077148 2.8759766c-.0000001 0 6.9096679 2.1738281 10.9077148-2.8759766z"/><path d="m23.159668 20.7485352c1.543457 1.8632813 13.2651367 3.1054688 18.0395508-.9306641 0 0-8.8706055 2.7939453-18.0395508.9306641z"/><ellipse cx="26.749512" cy="35.094238" rx=".407914" ry="10.138462" transform="matrix(.9911336 -.1328693 .1328693 .9911336 -4.425776 3.865351)"/><path d="m30.0522461 36.8164063c.3837891 7.2451172-.0112305 9.4765625.0371094 10.9462891.0078125.2255859-.4682617-3.6582031-.8520508-10.9042969-.3833008-7.2446289-.512207-13.1264648-.2875977-13.1381836.225586-.0117188.7192383 5.8515624 1.1025391 13.0961914z"/><path d="m33.0751953 36.8339844c.0537109 7.2548828.0185547 10.1630859-.1459961 11.6513672-.0249023.2226563-.6162109-4.3896484-.6713867-11.6445313-.0537109-7.2553711.0844727-13.1381836.3095703-13.1391602.225586-.0019531.453125 5.8789063.5078125 13.1323243z"/><path d="m36.1513672 36.8789063c-.7744141 7.2158203-1.8388672 13.8427734-1.7285156 10.8837891.078125-2.1347656.1425781-3.7548828.9160156-10.96875.7763672-7.2133789 1.5839844-13.0424805 1.8085938-13.0180664.2226562.024414-.2216797 5.8916015-.9960938 13.1030273z"/></g><path d="m28.5878906 9.168457s.34375 2.9882813 4.4980469 3.8027344 4.1542969.8144531 4.1542969.8144531.7001953.2045898-3.7587891-1.4570313c-6.8134766-2.5385742-3.1899414-4.2900391-3.1899414-4.2900391s-1.2724609-.4628905-1.7036133 1.1298829z" fill="#edd4b9"/><path d="m24.7978516 11.6518555s1.8066406 1.7851563 5.4936523 2.6005859c0 0-5.6430664-3.1416016-4.4882813-3.8701172z" fill="#edd4b9"/><path d="m38.1484375 11.0317383s-1.0839844 3.0683594-2.875 2.1816406v1.2539063s4.0097656-.6474609 5.2470703-2.0712891c0 0-.1816406-1.5595703-2.3720703-1.3642578z" fill="#edd4b9"/><path d="m26.1157227 16.6196289c-5.7680664-.4658203-1.3178711-4.9677734-1.3178711-4.9677734s.8237305-2.0185547 3.7900391-2.4833984c0 0 1.152832-1.7080078 3.9560547-1.2421875 0 0 4.4492188-1.0869141 5.6044922 3.1054688 0 0 2.2060547-.5908203 2.3720703 1.3642578.0498047.5957031.9238281 1.1816406-.3945313 3.0449219 0-.0000001-4.5820313 4.7490233-14.0102539 1.1787108z" fill="none"/><path d="m33.8867188 5.8149414c1.2675781-.0820313 1.4658203 1.1943359 1.6503906 1.3183594.1865234.1240234 2.3017578.1308594 2.7490234 1.6669922.4492188 1.5341797-1.6445313 4.9003906-4.2695313 4.4775391-2.6254883-.4228516-2.862793-2.0507813-2.8076172-3.5400391.0561524-1.4882813.9111329-3.8076172 2.6777345-3.9228516z" fill="url(#f)"/><path d="m34.4697266 13.4355469c-.1572266 0-.3164063-.0126953-.4726563-.0380859-2.6674805-.4296875-2.9672852-2.0932617-2.9091797-3.6640625.0605469-1.605957.9663086-3.9204102 2.7910156-4.0395508 1.0449219-.0581055 1.4238281.7226563 1.6201172 1.1386719.0380859.0810547.0859375.1816406.1083984.2026367.0224609.0097656.1513672.0322266.265625.0522461.6435547.1132813 2.1503906.3779297 2.5292969 1.6791992.2207031.7519531-.1308594 1.9243164-.875 2.9169922-.8339843 1.1132812-1.9482421 1.7519531-3.0576171 1.7519531zm-.4677735-7.503418c-.0351563 0-.0703125.0014648-.1074219.0039063-1.6552734.1079102-2.5087891 2.3349609-2.5644531 3.8061523-.0571289 1.5385742.2314453 3.0175781 2.7060547 3.4160156 1.1757813.1879883 2.4003906-.4223633 3.296875-1.6196289.7001953-.9350586 1.0371094-2.0214844.8369141-2.7041016-.3369141-1.1567383-1.6894531-1.394043-2.3388672-1.5083008-.2148438-.0375977-.3046875-.0546875-.3613281-.0917969-.0712891-.0483398-.1181641-.1479492-.1894531-.2978516-.1777344-.3754881-.475586-1.0043944-1.2783204-1.0043944z" fill="#54190a"/><path d="m35.2832031 6.9311523.7558594-.2041016s2.2539063-2.6835938 5.625-4.3857422l.2138672-.3896484s.3945313.0322266.4072266.2226563c0 0 .2402344.0410156.2304688.2646484 0 0-.2578125.4912109-.7109375.2792969 0 0-2.5429688 1.0712891-5.5039063 4.3330078l-.3984375.6103516-.7705078-.1298828z" fill="url(#g)"/><path d="m36.0185547 7.9272461-1.1855469-.2001953.25-.9926758.8203125-.2216797c.3574219-.4111328 2.4794922-2.7675781 5.5839844-4.3535156l.2539063-.4619141.15625.0126953c.2255859.0185547.4677734.1010742.5742188.2739258.1503906.0737305.296875.2250977.2861328.4658203l-.0273438.1020508c-.0908203.1713867-.3398438.4619141-.703125.4619141-.0712891 0-.1425781-.0107422-.2138672-.0327148-.4648438.2192383-2.7480469 1.3857422-5.3330078 4.2333984zm-.5878906-.5908203.3554688.0595703.2773438-.4243164-.5800781.15625zm6.4345703-4.8574219.0419922.0195313c.1376953.0649414.2509766-.0004883.3222656-.0776367l-.1445313-.0249023-.03125-.1538086c-.0117188-.0063477-.0292969-.0126953-.0478516-.019043z" fill="#54190a"/><path d="m34.0009766 7.5151367s1.7041016.4785156 2.0917969.40625c.3886718-.0722656-1.7763672-.5615234-2.0917969-.40625z" fill="#54190a"/><ellipse cx="36.808106" cy="8.410156" fill="#fff" rx=".394406" ry=".31842" transform="matrix(.8777536 .4791123 -.4791123 .8777536 8.529068 -16.607105)"/><path d="m32.5229492 12.2182617c-.9663086-.5361328-1.581543-2.3271484-.4589844-4.5458984 1.1225586-2.2177734-.3823242 1.2294922.7441406 2.5957031 1.1762696 1.4267578.2163087 2.2265625-.2851562 1.9501953z" fill="#fff" opacity=".3"/><path d="m35.1416016 12.9038086s1.6074219-.2021484 2.7353516-2.5556641c-1.1230469 1.2041016-2.7353516 2.5556641-2.7353516 2.5556641z" fill="#fff" opacity=".3"/><ellipse cx="36.411621" cy="8.458008" fill="#fff" rx=".332368" ry=".280772" transform="matrix(.8770521 .4803953 -.4803953 .8770521 8.539921 -16.452078)"/><ellipse cx="35.943359" cy="8.33252" fill="#fff" rx=".289307" ry=".249949" transform="matrix(.8776374 .4793251 -.4793251 .8776374 8.392107 -16.208965)"/><ellipse cx="34.765625" cy="7.962891" fill="#fff" rx=".289541" ry=".250458" transform="matrix(.8769271 .4806235 -.4806235 .8769271 8.10586 -15.729158)"/><path d="m40.0224609 12.9960938c-.2138672 0-.4121094-.1376953-.4775391-.3530273-.2929688-.9506836-.6503906-1.5297852-1.0615234-1.7211914-.5332031-.2475586-1.328125.0883789-2.2490234.4790039-1.6210938.6879883-3.8413086 1.6308594-6.3686523-.0732422-.2290039-.1542969-.2890625-.465332-.1347656-.6943359s.4648438-.2885742.6943359-.1347656c2.0756836 1.4003906 3.8510742.6474609 5.418457-.0180664 1.0927734-.4633789 2.1230469-.9008789 3.0615234-.465332.6982422.324707 1.2050781 1.0664063 1.5947266 2.3339844.0820313.2636719-.0664063.543457-.3300781.625-.0488281.0151365-.0986328.0219725-.147461.0219725z" fill="#edd4b9"/><path d="m26.6679688 10.6137695s4.737793 2.6010742 7.3330078.8022461c4.8232422-3.3432617 5.7197266-.6694336 6.0175781.4165039.2988281 1.0869141-6.9326172 3.390625-6.9326172 3.390625z" fill="url(#h)"/><path d="m31.953125 24.2900391c-9.2333984 0-10.3579102-2.1025391-10.4926758-2.574707-.0708008-.2470703.0722656-.5048828.3198242-.5756836.2407227-.0673828.4863281.0629883.5668945.2924805.0522461.0986328 1.4448242 2.4790039 13.7426758 1.8046875.2900391-.0224609.4755859.1831055.4902344.4394531.0146484.2568359-.1826172.4765625-.4394531.4902344-1.5537109.0854491-2.9443359.1235351-4.1875.1235351z" fill="#7a1515"/><path d="m23.1625977 14.7231445s-.5444336 3.2426758 9.2524414 3.2124023 9.0419922-4.847168 7.6074219-3.4467773c0 0-2.4287109 4.4609375-11.8505859 1.5957031-.0000001.0000001-2.0966798 1.8925782-5.0092774-1.3613281z" fill="#edd4b9"/></svg>